<?xml version="1.0" encoding="UTF-8" standalone="no"?>
<!DOCTYPE svg PUBLIC "-//W3C//DTD SVG 1.1//EN" "http://www.w3.org/Graphics/SVG/1.1/DTD/svg11.dtd">
<svg width="100%" height="100%" viewBox="0 0 462 336" version="1.1" xmlns="http://www.w3.org/2000/svg" xmlns:xlink="http://www.w3.org/1999/xlink" xml:space="preserve" xmlns:serif="http://www.serif.com/" style="fill-rule:evenodd;clip-rule:evenodd;stroke-linejoin:round;stroke-miterlimit:2;">
    <rect x="84" y="0" width="42" height="42" style="fill:rgb(0,122,255);"/>
    <rect x="126" y="42" width="42" height="42" style="fill:rgb(0,122,255);"/>
    <rect x="84" y="84" width="42" height="42" style="fill:rgb(0,122,255);"/>
    <rect x="42" y="126" width="42" height="42" style="fill:rgb(0,122,255);"/>
    <rect x="0" y="84" width="42" height="42" style="fill:rgb(0,122,255);"/>
    <rect x="0" y="42" width="42" height="42" style="fill:rgb(0,122,255);"/>
    <rect x="0" y="126" width="42" height="42" style="fill:rgb(0,122,255);"/>
    <rect x="42" y="168" width="42" height="42" style="fill:rgb(0,122,255);"/>
    <rect x="0" y="168" width="42" height="42" style="fill:rgb(0,122,255);"/>
    <rect x="42" y="210" width="42" height="42" style="fill:rgb(0,122,255);"/>
    <rect x="84" y="126" width="42" height="42" style="fill:rgb(0,122,255);"/>
    <rect x="84" y="168" width="42" height="42" style="fill:rgb(0,122,255);"/>
    <rect x="84" y="210" width="42" height="42" style="fill:rgb(0,122,255);"/>
    <rect x="84" y="252" width="42" height="42" style="fill:rgb(0,122,255);"/>
    <rect x="42" y="294" width="42" height="42" style="fill:rgb(0,122,255);"/>
    <rect x="126" y="84" width="42" height="42" style="fill:rgb(0,122,255);"/>
    <rect x="168" y="84" width="42" height="42" style="fill:rgb(0,122,255);"/>
    <rect x="210" y="84" width="42" height="42" style="fill:rgb(0,122,255);"/>
    <rect x="252" y="84" width="42" height="42" style="fill:rgb(0,122,255);"/>
    <rect x="294" y="42" width="42" height="42" style="fill:rgb(0,122,255);"/>
    <rect x="336" y="0" width="42" height="42" style="fill:rgb(0,122,255);"/>
    <rect x="294" y="84" width="42" height="42" style="fill:rgb(0,122,255);"/>
    <rect x="336" y="84" width="42" height="42" style="fill:rgb(0,122,255);"/>
    <rect x="420" y="84" width="42" height="42" style="fill:rgb(0,122,255);"/>
    <rect x="420" y="42" width="42" height="42" style="fill:rgb(0,122,255);"/>
    <rect x="420" y="126" width="42" height="42" style="fill:rgb(0,122,255);"/>
    <rect x="420" y="168" width="42" height="42" style="fill:rgb(0,122,255);"/>
    <rect x="336" y="126" width="42" height="42" style="fill:rgb(0,122,255);"/>
    <rect x="336" y="168" width="42" height="42" style="fill:rgb(0,122,255);"/>
    <rect x="336" y="210" width="42" height="42" style="fill:rgb(0,122,255);"/>
    <rect x="378" y="126" width="42" height="42" style="fill:rgb(0,122,255);"/>
    <rect x="378" y="168" width="42" height="42" style="fill:rgb(0,122,255);"/>
    <rect x="378" y="210" width="42" height="42" style="fill:rgb(0,122,255);"/>
    <rect x="336" y="252" width="42" height="42" style="fill:rgb(0,122,255);"/>
    <rect x="378" y="294" width="42" height="42" style="fill:rgb(0,122,255);"/>
    <rect x="126" y="210" width="42" height="42" style="fill:rgb(0,122,255);"/>
    <rect x="168" y="210" width="42" height="42" style="fill:rgb(0,122,255);"/>
    <rect x="210" y="210" width="42" height="42" style="fill:rgb(0,122,255);"/>
    <rect x="252" y="210" width="42" height="42" style="fill:rgb(0,122,255);"/>
    <rect x="294" y="210" width="42" height="42" style="fill:rgb(0,122,255);"/>
    <rect x="126" y="168" width="42" height="42" style="fill:rgb(0,122,255);"/>
    <rect x="168" y="168" width="42" height="42" style="fill:rgb(0,122,255);"/>
    <rect x="210" y="168" width="42" height="42" style="fill:rgb(0,122,255);"/>
    <rect x="252" y="168" width="42" height="42" style="fill:rgb(0,122,255);"/>
    <rect x="294" y="168" width="42" height="42" style="fill:rgb(0,122,255);"/>
    <rect x="168" y="126" width="42" height="42" style="fill:rgb(0,122,255);"/>
    <rect x="210" y="126" width="42" height="42" style="fill:rgb(0,122,255);"/>
    <rect x="252" y="126" width="42" height="42" style="fill:rgb(0,122,255);"/>
</svg>
